<svg display="none" xmlns="http://www.w3.org/2000/svg">
  <symbol id="facebook" width="8.13" height="15.43" viewBox="0 0 8.13 15.43">
    <path d="M1069.19,1899.12c0.41,0,.83.03,1.24,0.05,0.27,0.01.54,0.04,0.79,0.07l-0.02,2.49H1071c-0.27,0-.54-0.01-0.82-0.01-0.2,0-.4.01-0.61,0.01a1.041,1.041,0,0,0-1.18,1.09c-0.02.6-.03,1.9-0.03,1.97,0.03,0,.68.01,1.34,0.01,0.32,0,.64,0,0.87-0.01h0.53c-0.13.96-.26,1.87-0.39,2.8h-2.35l-0.06,6.97h-2.89l0.06-6.99h-2.37l0.02-2.77h2.38v-0.21c0.01-.56,0-1.12.02-1.68a7.581,7.581,0,0,1,.09-1.06,3.145,3.145,0,0,1,1.27-2.08,3.6,3.6,0,0,1,2.08-.64C1069.04,1899.13,1069.11,1899.12,1069.19,1899.12Z" transform="translate(-1063.09 -1899.13)"/>
  </symbol>

  <symbol id="instagram" width="13.63" height="13.66" viewBox="0 0 13.63 13.66">
    <path d="M1133.34,1913.46a3.431,3.431,0,0,1-2.72-2.98,38.588,38.588,0,0,1,.13-7.67,3.483,3.483,0,0,1,2.98-2.65,27.381,27.381,0,0,1,3.42-.15c1.28,0,2.56.03,3.33,0.07a3.78,3.78,0,0,1,2.5,1.02,3.638,3.638,0,0,1,1.09,2.33,43.2,43.2,0,0,1-.15,7.35,3.485,3.485,0,0,1-3.02,2.73,32.586,32.586,0,0,1-3.76.15A23.5,23.5,0,0,1,1133.34,1913.46Zm0.73-12.12a2.349,2.349,0,0,0-2.18,2.06,45.652,45.652,0,0,0-.05,6.9,2.224,2.224,0,0,0,1.69,1.93,20.971,20.971,0,0,0,3.67.2c1.43,0,2.84-.05,3.37-0.1a2.341,2.341,0,0,0,2.18-2.07,48.648,48.648,0,0,0,.09-6.71,2.3,2.3,0,0,0-2.05-2.18,30.906,30.906,0,0,0-3.41-.13C1136.02,1901.24,1134.66,1901.28,1134.07,1901.34Zm-0.25,5.5a3.517,3.517,0,0,1,3.53-3.5,3.459,3.459,0,0,1,3.47,3.5,3.53,3.53,0,0,1-3.53,3.5A3.466,3.466,0,0,1,1133.82,1906.84Zm1.23-.03a2.252,2.252,0,0,0,2.23,2.29h0.02a2.284,2.284,0,0,0,2.28-2.24,2.237,2.237,0,0,0-2.22-2.29h-0.02A2.293,2.293,0,0,0,1135.05,1906.81Zm5.12-3.61a0.824,0.824,0,0,1,.82-0.82H1141a0.815,0.815,0,0,1,.81.82,0.826,0.826,0,0,1-.83.82A0.815,0.815,0,0,1,1140.17,1903.2Z" transform="translate(-1130.5 -1900)"/>
  </symbol>

  <symbol id="twitter" width="14.31" height="11.62" viewBox="0 0 14.31 11.62">
    <path d="M1109.69,1902.28c-0.11.16-.21,0.3-0.33,0.45a5.7,5.7,0,0,1-1.07,1.01l-0.05.09a8.22,8.22,0,0,1-.07,1.31,8.818,8.818,0,0,1-.77,2.61,8.712,8.712,0,0,1-1.6,2.3,7.864,7.864,0,0,1-4.05,2.25,8.967,8.967,0,0,1-1.64.2h-0.26a8.172,8.172,0,0,1-4.42-1.27l-0.07-.04a5.322,5.322,0,0,0,.69.04,6.049,6.049,0,0,0,2.25-.44,5.834,5.834,0,0,0,1.4-.82,2.9,2.9,0,0,1-2.71-2.03,3.287,3.287,0,0,0,.54.05,2.82,2.82,0,0,0,.71-0.09l0.05-.02a2.9,2.9,0,0,1-2.32-2.9,2.914,2.914,0,0,0,1.31.35,2.914,2.914,0,0,1-1.2-1.78,2.877,2.877,0,0,1,.34-2.12,8.311,8.311,0,0,0,6.02,3.07c-0.02-.12-0.03-0.22-0.05-0.33a2.8,2.8,0,0,1,.45-1.91,2.853,2.853,0,0,1,1.99-1.33,3.439,3.439,0,0,1,.54-0.04,2.833,2.833,0,0,1,2.03.86,0.139,0.139,0,0,0,.1.05,0.09,0.09,0,0,0,.05-0.01,5.547,5.547,0,0,0,1.71-.65l0.04-.02a2.919,2.919,0,0,1-1.25,1.6A5.859,5.859,0,0,0,1109.69,1902.28Z" transform="translate(-1095.38 -1900.88)"/>
  </symbol>

  <symbol id="google" width="18.03" height="11.41" viewBox="0 0 18.03 11.41">
    <path d="M1170.27,1912.73a5.653,5.653,0,0,1-5.24-4.49,5.314,5.314,0,0,1-.11-1.54,5.573,5.573,0,0,1,1.29-3.25,5.683,5.683,0,0,1,3.07-1.96,4.271,4.271,0,0,1,.94-0.14c0.18-.01.36-0.02,0.55-0.02a5.311,5.311,0,0,1,2.69.74,6.276,6.276,0,0,1,1.01.74c-0.57.56-1.11,1.11-1.67,1.66a3.053,3.053,0,0,0-1.67-.81,4.051,4.051,0,0,0-.48-0.04,3.429,3.429,0,0,0-3.29,2.67,2.977,2.977,0,0,0-.08,1.03,3.429,3.429,0,0,0,2.33,2.97,3.365,3.365,0,0,0,1,.15c0.08,0,.15-0.01.23-0.01a3.427,3.427,0,0,0,1.67-.53,2.65,2.65,0,0,0,1.13-1.72h-3.05c0-.08.01-1.5,0.01-2.2l0.01-.09h5.36a6.171,6.171,0,0,1-1.01,4.81,5.029,5.029,0,0,1-2.82,1.84,6.2,6.2,0,0,1-1.54.2C1170.49,1912.74,1170.38,1912.73,1170.27,1912.73Zm10.59-3.22h-1.51v-0.06l0.02-1.93h-1.99v-0.06l0.01-1.44v-0.06h1.99l0.01-1.93,0.01-.06h1.55v0.06l-0.01,1.93h1.99v0.06l-0.01,1.44v0.06h-1.99l-0.02,1.93v0.06h-0.05Z" transform="translate(-1164.91 -1901.34)"/>
  </symbol>

  <symbol id="arrow" viewBox="0 0 512.008 512.008">
  	<path d="M508.885,248.468L306.219,45.801c-21.803-21.803-57.28-21.803-79.083,0s-21.803,57.28,0,79.083l77.781,77.781H53.333
			C23.936,202.665,0,226.601,0,255.999s23.936,53.333,53.333,53.333h251.584l-77.781,77.781c-21.803,21.803-21.803,57.28,0,79.083
			c10.901,10.901,25.216,16.363,39.552,16.363s28.629-5.44,39.552-16.363l202.667-202.667
			C513.045,259.369,513.045,252.628,508.885,248.468z"/>
  </symbol>
</svg>