<svg display="none" xmlns="http://www.w3.org/2000/svg">
  <symbol id="heart__icon"  width="22" height="18" viewBox="0 0 22 18">
    <path d="M882.99,1569.82a6.208,6.208,0,0,0-1.849-4.1A5.871,5.871,0,0,0,877,1564c-2.311,0-3.948,1.78-4.827,2.74a2.156,2.156,0,0,1-.156.17l-0.083-.09c-0.8-.92-2.476-2.82-4.938-2.82a5.873,5.873,0,0,0-4.139,1.72,6.208,6.208,0,0,0-1.849,4.1,6.845,6.845,0,0,0,1.271,4.34,29.307,29.307,0,0,0,4.763,4.75c1.705,1.41,3.95,3.09,4.965,3.09,1.032,0,3.269-1.68,4.965-3.09a29.234,29.234,0,0,0,4.746-4.75A6.935,6.935,0,0,0,882.99,1569.82Zm-2.376,3.61a27,27,0,0,1-4.431,4.42c-2.406,2-3.831,2.79-4.172,2.82-0.342-.03-1.77-0.83-4.188-2.84a26.78,26.78,0,0,1-4.437-4.4,5.6,5.6,0,0,1-1.054-3.54,4.807,4.807,0,0,1,4.666-4.57c1.863,0,3.216,1.54,3.943,2.37a1.52,1.52,0,0,0,1.059.76,1.731,1.731,0,0,0,1.151-.81c0.794-.87,2.122-2.32,3.851-2.32a4.807,4.807,0,0,1,4.666,4.57A5.528,5.528,0,0,1,880.614,1573.43Z" transform="translate(-861 -1564)"/>
  </symbol>

  <symbol id="search__icon" width="20" height="20" viewBox="0 0 20 20">
    <path d="M759.45,1579.8l-4.588-4.59a8.827,8.827,0,0,1-2.651,2.65l4.588,4.59A1.874,1.874,0,0,0,759.45,1579.8Zm-4.45-9.3a7.5,7.5,0,1,0-7.5,7.5A7.5,7.5,0,0,0,755,1570.5Zm-7.5,5.62a5.625,5.625,0,1,1,5.625-5.62A5.628,5.628,0,0,1,747.5,1576.12Zm-4.375-5.62h1.25a3.135,3.135,0,0,1,3.125-3.13v-1.25A4.386,4.386,0,0,0,743.125,1570.5Z" transform="translate(-740 -1563)"  />
  </symbol>

  <symbol id="shop__icon"  width="22" height="20" viewBox="0 0 22 20">
    <path d="M800.814,1564.63h2.333l3.323,12.04a0.812,0.812,0,0,0,.787.59h10.214a0.821,0.821,0,0,0,.746-0.48l3.717-8.56a0.836,0.836,0,0,0-.068-0.78,0.813,0.813,0,0,0-.678-0.37H809.9a0.82,0.82,0,0,0,0,1.64H819.94l-3.011,6.92h-9.062l-3.323-12.03a0.808,0.808,0,0,0-.787-0.6h-2.943A0.815,0.815,0,0,0,800.814,1564.63Zm5.67,18.37a1.85,1.85,0,1,0-1.845-1.85A1.85,1.85,0,0,0,806.484,1583Zm11.53,0h0.135A1.907,1.907,0,1,0,818.014,1583Z" transform="translate(-800 -1563)"/>
  </symbol>

  <symbol id="arrow-right" width="22" height="9" viewBox="0 0 22 9">
    <path d="M535.3,654.472h16.948l-0.1,2.857a0.292,0.292,0,0,0,0,.41l0.172,0.172a0.28,0.28,0,0,0,.2.086,0.285,0.285,0,0,0,.2-0.084l4.193-4.211A0.292,0.292,0,0,0,557,653.5a0.283,0.283,0,0,0-.084-0.2l-4.193-4.213a0.289,0.289,0,0,0-.407,0l-0.172.173a0.287,0.287,0,0,0-.084.2,0.278,0.278,0,0,0,.084.2l0.113,2.865H535.292a0.3,0.3,0,0,0-.292.295v1.37A0.292,0.292,0,0,0,535.3,654.472Z" transform="translate(-535 -649)"/>
  </symbol>

  <symbol id="blog-arrow" width="6.1" height="10.97" viewBox="0 0 6.1 10.97">
    <path d="M1539.33,4295.69a0.53,0.53,0,0,1-.41-0.19,0.6,0.6,0,0,1-.15-0.4,0.631,0.631,0,0,1,.17-0.43l4.55-4.47-4.55-4.48a0.607,0.607,0,0,1-.17-0.42,0.629,0.629,0,0,1,.15-0.41,0.559,0.559,0,0,1,.8-0.02l4.98,4.9,0.01,0.01a0.657,0.657,0,0,1,.12.17h0a0.7,0.7,0,0,1,.05.25h0a0.742,0.742,0,0,1-.05.25h0a0.61,0.61,0,0,1-.12.16c0,0.01-.01.01-0.01,0.02l-4.98,4.9A0.589,0.589,0,0,1,1539.33,4295.69Z" transform="translate(-1538.78 -4284.72)"/>
  </symbol>

  <symbol id="heart" viewBox="0 0 17.87 15.531" >
    <path d="M8.94 15.526a.731.731 0 01-.28-.056C8.31 15.32.01 11.721.01 4.71A28.181 28.181 0 0013.06.003a4.817 4.817 0 014.81 4.684c0 7.034-8.29 10.634-8.65 10.783a.7.7 0 01-.28.056zM4.83 1.388a3.427 3.427 0 00-3.41 3.346c0 5.407 6.13 8.662 7.52 9.334 1.4-.672 7.52-3.93 7.52-9.358a3.406 3.406 0 00-6.81.024.709.709 0 01-.71.669.694.694 0 01-.7-.669 3.427 3.427 0 00-3.41-3.347z" ></path>
  </symbol>

  <symbol id="menu" viewBox="0 0 20.03 20.031" >
    <path d="M2.15 4.287a2.146 2.146 0 112.14-2.145 2.145 2.145 0 01-2.14 2.145zm0 7.869a2.146 2.146 0 112.14-2.147 2.146 2.146 0 01-2.14 2.147zm0 7.868a2.146 2.146 0 112.14-2.146 2.145 2.145 0 01-2.14 2.146zm7.86-15.737a2.146 2.146 0 112.15-2.145 2.143 2.143 0 01-2.15 2.145zm0 7.869a2.146 2.146 0 112.15-2.147 2.144 2.144 0 01-2.15 2.147zm0 7.868a2.146 2.146 0 112.15-2.146 2.143 2.143 0 01-2.15 2.146zm7.87-15.737a2.146 2.146 0 112.15-2.145 2.143 2.143 0 01-2.15 2.145zm0 7.869a2.146 2.146 0 112.15-2.147 2.144 2.144 0 01-2.15 2.147zm0 7.868a2.146 2.146 0 112.15-2.146 2.143 2.143 0 01-2.15 2.146z" ></path>
  </symbol>

  <symbol id="search" viewBox="0 0 15.28 15.281" >
    <path d="M2.98 6.076a.617.617 0 01.75.485 2.583 2.583 0 00.78 1.489A3.036 3.036 0 006 8.827a.636.636 0 01.49.743.649.649 0 01-.72.515 4.21 4.21 0 01-2.14-1.13A4.164 4.164 0 012.5 6.819a.6.6 0 01.48-.743zM6.26 0a6.267 6.267 0 016.28 6.257 6.136 6.136 0 01-.57 2.6l2.34 2.036c1.7 1.746.74 3.266.29 3.717-.42.454-1.99 1.414-3.73-.292l-2.06-2.35A6.261 6.261 0 116.26 0zm5.55 13.517a1.352 1.352 0 001.88.226 1.313 1.313 0 00-.23-1.874l-2.16-1.88a6.236 6.236 0 01-1.37 1.34zm-5.55-2.312a4.948 4.948 0 10-4.97-4.948A4.963 4.963 0 006.26 11.2z"></path>
  </symbol>

  <symbol id="shop" viewBox="0 0 18.94 16.969" >
    <path d="M5.53 16.978a2.074 2.074 0 110-4.147 2.056 2.056 0 011.46.6 2.03 2.03 0 01.61 1.466 2.071 2.071 0 01-2.07 2.081zm0-2.963a.889.889 0 10.34 1.71.9.9 0 00.55-.824.92.92 0 00-.26-.629.9.9 0 00-.63-.257zm8.39 2.963a2.045 2.045 0 01-1.46-.607 2.068 2.068 0 011.46-3.54 1.953 1.953 0 011.47.6 2.085 2.085 0 01-.67 3.383 2.093 2.093 0 01-.8.164zm0-2.963a.978.978 0 00-.82.548.887.887 0 001.16 1.161.891.891 0 00.29-1.452.9.9 0 00-.63-.257zm-11.27.164a.562.562 0 01-.25-.056.59.59 0 01-.29-.787 3.686 3.686 0 013.05-2.151L4.11 5.794a.591.591 0 111.16-.228l1.09 5.578h9.43l1.8-6.771H4.29A4.346 4.346 0 01.01.68.587.587 0 01.5.007a.6.6 0 01.68.5 3.159 3.159 0 003.11 2.682h14.07a.582.582 0 01.47.232.594.594 0 01.11.513l-2.13 7.956a.59.59 0 01-.57.44H5.88a.03.03 0 00-.02 0 2.66 2.66 0 00-2.68 1.51.586.586 0 01-.53.338z" ></path>
  </symbol>

  <symbol id="slider-arrow" viewBox="0 0 22 9" >
    <path fill="fff" fill-rule="evenodd" d="M.3 5.472h16.948l-.1 2.857a.292.292 0 000 .41l.172.172a.28.28 0 00.2.086.285.285 0 00.2-.084l4.193-4.211A.292.292 0 0022 4.5a.283.283 0 00-.084-.2L17.723.087a.289.289 0 00-.407 0l-.172.173a.287.287 0 00-.084.2.278.278 0 00.084.2l.113 2.865H.292A.3.3 0 000 3.82v1.37a.292.292 0 00.3.282z" ></path>
  </symbol>

  <symbol id="play-video" viewBox="0 0 127 127">
    <g>
      <circle class='one' opacity="0.4" cx="63.5" cy="63.5" r="63.5"/>
      <circle cx="63" cy="63" r="49"/>
      <path fill="#fff" fill-rule="evenodd" d="M970.684,3900.74l-16.044,9.8a3.228,3.228,0,0,1-3.062.14,2.685,2.685,0,0,1-1.579-2.39V3888.7a2.685,2.685,0,0,1,1.579-2.39,3.258,3.258,0,0,1,3.062.15l16.044,9.79A2.666,2.666,0,0,1,972,3898.5,2.638,2.638,0,0,1,970.684,3900.74Z" transform="translate(-897 -3836)"/>
    </g>
  </symbol>

  <symbol id="instagram" width="22.66" height="14.38" viewBox="0 0 22.66 14.38">
    <path d="M1052.75,1960.35a7.121,7.121,0,0,1-6.59-5.65,6.6,6.6,0,0,1-.14-1.93,7.277,7.277,0,0,1,5.49-6.56,5.282,5.282,0,0,1,1.18-.19c0.23-.01.46-0.02,0.69-0.02a6.786,6.786,0,0,1,3.4.93,9.386,9.386,0,0,1,1.27.93c-0.72.71-1.41,1.4-2.11,2.09a3.914,3.914,0,0,0-2.1-1.02,4.259,4.259,0,0,0-.61-0.04,4.307,4.307,0,0,0-4.14,3.35,3.817,3.817,0,0,0-.1,1.3,4.3,4.3,0,0,0,2.94,3.74,4.35,4.35,0,0,0,1.25.19c0.1,0,.2-0.01.3-0.01a4.2,4.2,0,0,0,2.09-.67,3.314,3.314,0,0,0,1.43-2.17h-3.85c0-.09.02-1.89,0.02-2.76l0.01-.12h6.76a7.773,7.773,0,0,1-1.28,6.05,6.273,6.273,0,0,1-3.55,2.32,7.539,7.539,0,0,1-1.94.25C1053.03,1960.36,1052.89,1960.36,1052.75,1960.35Zm13.33-4.05h-1.89v-0.07l0.02-2.43h-2.51v-0.08l0.02-1.82v-0.07h2.5l0.02-2.43v-0.07h1.96v0.07l-0.02,2.43h2.51v0.07l-0.01,1.82v0.08h-2.51l-0.02,2.43v0.07h-0.07Z" transform="translate(-1046.03 -1946)"/>
  </symbol>

  <symbol id="google" width="17.19" height="17.19" viewBox="0 0 17.19 17.19">
    <path d="M1004.59,1961.94a4.322,4.322,0,0,1-3.43-3.75c-0.23-1.45-.25-8.19.17-9.65a4.387,4.387,0,0,1,3.75-3.35,34.173,34.173,0,0,1,4.31-.19c1.6,0,3.22.04,4.19,0.1a4.724,4.724,0,0,1,3.14,1.28,4.517,4.517,0,0,1,1.38,2.94c0.12,1.35.21,7.74-.19,9.24a4.411,4.411,0,0,1-3.8,3.44,42.333,42.333,0,0,1-4.74.19A29.143,29.143,0,0,1,1004.59,1961.94Zm0.92-15.26a2.958,2.958,0,0,0-2.75,2.59,57.587,57.587,0,0,0-.06,8.69,2.8,2.8,0,0,0,2.12,2.43,27.569,27.569,0,0,0,4.63.25c1.8,0,3.57-.06,4.24-0.13a2.941,2.941,0,0,0,2.75-2.6,61.315,61.315,0,0,0,.11-8.45,2.9,2.9,0,0,0-2.58-2.74,40.212,40.212,0,0,0-4.3-.16C1007.96,1946.56,1006.26,1946.6,1005.51,1946.68Zm-0.32,6.92a4.445,4.445,0,0,1,4.45-4.41,4.37,4.37,0,0,1,4.37,4.41,4.458,4.458,0,0,1-4.45,4.41A4.37,4.37,0,0,1,1005.19,1953.6Zm1.55-.03a2.834,2.834,0,0,0,2.81,2.88h0.02a2.882,2.882,0,0,0,2.88-2.82,2.82,2.82,0,0,0-2.8-2.88h-0.03A2.881,2.881,0,0,0,1006.74,1953.57Zm6.45-4.55a1.029,1.029,0,0,1,1.03-1.03h0.01a1.016,1.016,0,0,1,1.02,1.04,1.035,1.035,0,0,1-1.04,1.02A1.014,1.014,0,0,1,1013.19,1949.02Z" transform="translate(-1001 -1945)"/>
  </symbol>

  <symbol id="join-arrow" width="15" height="11" viewBox="0 0 15 11">
    <path class="cls-1" d="M509.931,2024.01a0.673,0.673,0,0,0,.425-0.16l5.434-4.92c0.007,0,.013-0.01.019-0.01l0.031-.03v-0.01h0a0.567,0.567,0,0,0,.138-0.47,0.6,0.6,0,0,0-.155-0.31l-0.033-.03-5.435-4.91a0.65,0.65,0,0,0-.874.02,0.578,0.578,0,0,0,.024.84l4.311,3.89H501.631a0.608,0.608,0,0,0-.617.59,0.6,0.6,0,0,0,.617.59h12.186l-4.311,3.9a0.566,0.566,0,0,0-.024.83A0.608,0.608,0,0,0,509.931,2024.01Z" transform="translate(-501 -2013)"/>
  </symbol>

  <symbol id="grid" viewBox="0 0 24 24">
    <g>
      <path d="m6 0h-5c-.552 0-1 .448-1 1v5c0 .552.448 1 1 1h5c.552 0 1-.448 1-1v-5c0-.552-.448-1-1-1z"/>
      <path d="m6 8.5h-5c-.552 0-1 .448-1 1v5c0 .552.448 1 1 1h5c.552 0 1-.448 1-1v-5c0-.552-.448-1-1-1z"/>
      <path d="m15.5 14.5v-5c0-.552-.448-1-1-1h-5c-.552 0-1 .448-1 1v5c0 .552.448 1 1 1h5c.552 0 1-.448 1-1z"/>
      <path d="m15.5 6v-5c0-.552-.448-1-1-1h-5c-.552 0-1 .448-1 1v5c0 .552.448 1 1 1h5c.552 0 1-.448 1-1z"/>
      <path d="m23 0h-5c-.552 0-1 .448-1 1v5c0 .552.448 1 1 1h5c.552 0 1-.448 1-1v-5c0-.552-.448-1-1-1z"/>
      <path d="m18 15.5h5c.552 0 1-.448 1-1v-5c0-.552-.448-1-1-1h-5c-.552 0-1 .448-1 1v5c0 .552.448 1 1 1z"/>
      <path d="m18 24h5c.552 0 1-.448 1-1v-5c0-.552-.448-1-1-1h-5c-.552 0-1 .448-1 1v5c0 .552.448 1 1 1z"/>
      <path d="m0 18v5c0 .552.448 1 1 1h5c.552 0 1-.448 1-1v-5c0-.552-.448-1-1-1h-5c-.552 0-1 .448-1 1z"/>
      <path d="m8.5 18v5c0 .552.448 1 1 1h5c.552 0 1-.448 1-1v-5c0-.552-.448-1-1-1h-5c-.552 0-1 .448-1 1z"/>
    </g>
  </symbol>

  <symbol id="grid-record" viewBox="0 0 24 24">
    <g>
      <path d="m5 0h-4c-.552 0-1 .448-1 1v4c0 .552.448 1 1 1h4c.552 0 1-.448 1-1v-4c0-.552-.448-1-1-1z"/>
      <path d="m23 0h-14c-.552 0-1 .448-1 1v4c0 .552.448 1 1 1h14c.552 0 1-.448 1-1v-4c0-.552-.448-1-1-1z"/>
      <path d="m5 9h-4c-.552 0-1 .448-1 1v4c0 .552.448 1 1 1h4c.552 0 1-.448 1-1v-4c0-.552-.448-1-1-1z"/>
      <path d="m23 9h-14c-.552 0-1 .448-1 1v4c0 .552.448 1 1 1h14c.552 0 1-.448 1-1v-4c0-.552-.448-1-1-1z"/>
      <path d="m5 18h-4c-.552 0-1 .448-1 1v4c0 .552.448 1 1 1h4c.552 0 1-.448 1-1v-4c0-.552-.448-1-1-1z"/>
      <path d="m23 18h-14c-.552 0-1 .448-1 1v4c0 .552.448 1 1 1h14c.552 0 1-.448 1-1v-4c0-.552-.448-1-1-1z"/>
    </g>
  </symbol>
</svg>
