  <svg display="none" xmlns="http://www.w3.org/2000/svg">
    <symbol id="heart__icon"  width="22" height="18" viewBox="0 0 22 18">
      <g>
        <path fill="a3bbc8" fill-rule= "evenodd"
          d="M882.99,1569.82a6.208,6.208,0,0,0-1.849-4.1A5.871,5.871,0,0,0,877,1564c-2.311,0-3.948,1.78-4.827,2.74a2.156,2.156,0,0,1-.156.17l-0.083-.09c-0.8-.92-2.476-2.82-4.938-2.82a5.873,5.873,0,0,0-4.139,1.72,6.208,6.208,0,0,0-1.849,4.1,6.845,6.845,0,0,0,1.271,4.34,29.307,29.307,0,0,0,4.763,4.75c1.705,1.41,3.95,3.09,4.965,3.09,1.032,0,3.269-1.68,4.965-3.09a29.234,29.234,0,0,0,4.746-4.75A6.935,6.935,0,0,0,882.99,1569.82Zm-2.376,3.61a27,27,0,0,1-4.431,4.42c-2.406,2-3.831,2.79-4.172,2.82-0.342-.03-1.77-0.83-4.188-2.84a26.78,26.78,0,0,1-4.437-4.4,5.6,5.6,0,0,1-1.054-3.54,4.807,4.807,0,0,1,4.666-4.57c1.863,0,3.216,1.54,3.943,2.37a1.52,1.52,0,0,0,1.059.76,1.731,1.731,0,0,0,1.151-.81c0.794-.87,2.122-2.32,3.851-2.32a4.807,4.807,0,0,1,4.666,4.57A5.528,5.528,0,0,1,880.614,1573.43Z" transform="translate(-861 -1564)"/>
      </g>
    </symbol>

    <symbol id="search__icon" width="20" height="20" viewBox="0 0 20 20">
      <g>
        <path fill="a3bbc8" fill-rule= "evenodd"
          d="M759.45,1579.8l-4.588-4.59a8.827,8.827,0,0,1-2.651,2.65l4.588,4.59A1.874,1.874,0,0,0,759.45,1579.8Zm-4.45-9.3a7.5,7.5,0,1,0-7.5,7.5A7.5,7.5,0,0,0,755,1570.5Zm-7.5,5.62a5.625,5.625,0,1,1,5.625-5.62A5.628,5.628,0,0,1,747.5,1576.12Zm-4.375-5.62h1.25a3.135,3.135,0,0,1,3.125-3.13v-1.25A4.386,4.386,0,0,0,743.125,1570.5Z" transform="translate(-740 -1563)"  />
      </g>
    </symbol>

     <symbol id="shop__icon"  width="22" height="20" viewBox="0 0 22 20">
      <g>
        <path fill="a3bbc8" fill-rule= "evenodd"
          d="M800.814,1564.63h2.333l3.323,12.04a0.812,0.812,0,0,0,.787.59h10.214a0.821,0.821,0,0,0,.746-0.48l3.717-8.56a0.836,0.836,0,0,0-.068-0.78,0.813,0.813,0,0,0-.678-0.37H809.9a0.82,0.82,0,0,0,0,1.64H819.94l-3.011,6.92h-9.062l-3.323-12.03a0.808,0.808,0,0,0-.787-0.6h-2.943A0.815,0.815,0,0,0,800.814,1564.63Zm5.67,18.37a1.85,1.85,0,1,0-1.845-1.85A1.85,1.85,0,0,0,806.484,1583Zm11.53,0h0.135A1.907,1.907,0,1,0,818.014,1583Z" transform="translate(-800 -1563)"/>
      </g>
    </symbol>

    <symbol id="arrow-right" width="22" height="9" viewBox="0 0 22 9">
      <g>
        <path fill="a3bbc8" fill-rule= "evenodd"
          d="M535.3,654.472h16.948l-0.1,2.857a0.292,0.292,0,0,0,0,.41l0.172,0.172a0.28,0.28,0,0,0,.2.086,0.285,0.285,0,0,0,.2-0.084l4.193-4.211A0.292,0.292,0,0,0,557,653.5a0.283,0.283,0,0,0-.084-0.2l-4.193-4.213a0.289,0.289,0,0,0-.407,0l-0.172.173a0.287,0.287,0,0,0-.084.2,0.278,0.278,0,0,0,.084.2l0.113,2.865H535.292a0.3,0.3,0,0,0-.292.295v1.37A0.292,0.292,0,0,0,535.3,654.472Z" transform="translate(-535 -649)"/>
      </g>
    </symbol>

    <symbol id="blog-arrow" width="6.1" height="10.97" viewBox="0 0 6.1 10.97">
      <g>
        <path fill="262626" fill-rule= "evenodd"
          d="M1539.33,4295.69a0.53,0.53,0,0,1-.41-0.19,0.6,0.6,0,0,1-.15-0.4,0.631,0.631,0,0,1,.17-0.43l4.55-4.47-4.55-4.48a0.607,0.607,0,0,1-.17-0.42,0.629,0.629,0,0,1,.15-0.41,0.559,0.559,0,0,1,.8-0.02l4.98,4.9,0.01,0.01a0.657,0.657,0,0,1,.12.17h0a0.7,0.7,0,0,1,.05.25h0a0.742,0.742,0,0,1-.05.25h0a0.61,0.61,0,0,1-.12.16c0,0.01-.01.01-0.01,0.02l-4.98,4.9A0.589,0.589,0,0,1,1539.33,4295.69Z" transform="translate(-1538.78 -4284.72)"/>
      </g>
    </symbol>
  </svg>